<svg width="48" height="400" viewBox="0 0 48 400" fill="none" xmlns="http://www.w3.org/2000/svg">
<g clip-path="url(#clip0_4183_24082)">
<path d="M628.888 337.291C633.185 323.451 642.184 315.942 656.574 317.566C667.519 318.783 674.369 325.967 677.531 336.683C679.071 329.904 682.72 324.75 688.557 321.097C694.435 317.403 700.758 316.267 707.447 317.89C716.283 320.042 725.445 330.513 726.053 338.144C727.188 352.309 718.716 361.401 710.446 364.607C712.149 365.622 713.689 366.677 715.311 367.57C719.77 369.924 722.566 373.821 725.201 377.839C725.607 378.488 725.972 379.3 725.972 380.071C726.012 386.484 726.012 392.938 725.972 399.351C725.972 399.554 725.89 399.716 725.809 400C482.594 400 239.378 399.999 -3.95911 399.999C-3.95911 391.11 -3.95911 382.221 -3.95911 372.967C-2.45929 374.997 -1.16217 376.783 0.175537 378.65C3.25623 372.034 8.60699 367.934 15.1738 364.769C11.2418 363.023 8.03949 360.71 5.44519 357.585C2.81036 354.419 0.661988 351.009 0.297119 346.829C-0.959472 349.589 -2.21613 352.389 -3.51324 355.19C-3.67541 355.149 -3.83759 355.068 -3.99969 355.027C-3.99969 346.179 -3.99969 337.331 -3.99969 328.483C-3.83759 328.442 -3.67541 328.361 -3.51324 328.321C-2.29718 331.04 -1.08112 333.8 0.256592 336.763C1.06726 330.999 4.10748 326.494 8.24219 323.085C12.3768 319.675 17.2412 317.402 22.8756 317.199C26.8481 317.078 30.6586 317.687 34.1852 319.513C37.5091 321.299 41.0763 322.882 43.0626 326.413C44.9272 329.741 46.8323 333.069 48.4943 336.073C51.8588 324.465 59.8849 317.281 72.5727 317.362C85.4226 317.443 93.165 325.033 96.8132 337.372C100.056 324.871 108.001 317.646 120.689 317.403C133.579 317.159 141.443 324.627 145.254 337.088C148.74 324.424 156.806 317.403 169.373 317.362C182.02 317.321 189.803 324.708 193.491 337.169C197.018 324.424 205.125 317.281 217.813 317.362C230.339 317.443 238.121 324.749 241.729 337.21C245.215 324.668 253.12 317.443 265.645 317.362C278.617 317.322 286.724 324.627 290.129 337.9C294.264 323.856 302.898 316.55 317.207 317.362C322.477 317.646 327.017 320.244 331.07 323.613C335.124 327.022 337.029 331.69 338.651 337.129C342.461 324.425 350.487 317.565 363.459 317.2C369.215 317.038 374.201 319.473 378.538 322.882C382.916 326.332 385.632 331.081 386.848 336.723C390.618 324.749 398.36 317.322 410.967 317.322C423.898 317.322 432.045 324.546 435.329 337.778C439.666 323.451 448.746 315.779 463.299 317.525C474 318.824 481.053 325.724 483.81 336.845C488.35 323.167 497.47 315.82 511.78 317.525C521.224 318.621 529.534 325.521 532.088 336.926C535.898 324.831 543.641 317.403 556.288 317.322C568.895 317.241 576.597 324.668 580.691 336.642C583.285 325.643 592.851 317.322 604.364 317.241C615.835 317.16 625.686 324.79 628.888 337.291ZM305.938 364.81C297.263 361.157 292.44 354.744 290.21 346.058C288.183 354.866 283.238 361.075 274.685 364.769C281.657 367.813 286.886 372.318 290.21 379.381C293.818 372.359 298.804 367.651 305.938 364.81ZM451.057 364.81C442.463 361.157 437.68 354.703 435.288 346.058C433.707 355.109 428.195 360.832 420.614 364.566C423.371 366.555 426.37 368.382 428.843 370.695C431.356 373.049 433.424 375.931 435.734 378.61C439.139 372.522 443.963 367.57 451.057 364.81ZM112.055 364.769C103.988 360.832 98.5562 355.028 97.1375 346.504C95.2728 350.116 93.773 354.094 91.3003 357.341C88.8276 360.588 85.5037 363.308 80.8826 364.769C88.3007 367.529 93.0433 372.683 96.9348 379.34C99.975 371.993 105.609 368.056 112.055 364.769ZM613.484 364.81C620.375 367.651 625.321 372.603 628.766 378.488C631.158 375.647 633.104 372.725 635.617 370.411C638.13 368.138 641.211 366.474 643.927 364.648C636.225 360.873 630.915 354.988 629.05 345.855C626.74 354.825 621.794 361.035 613.484 364.81ZM323.369 364.769C330.057 367.854 335.408 372.115 338.651 379.056C342.137 372.197 347.325 367.691 354.095 364.769C345.785 361.197 341.002 355.069 338.61 346.18C336.583 355.19 331.678 361.116 323.369 364.769ZM257.052 364.688C248.782 361.319 243.999 355.15 241.77 346.261C239.459 355.15 234.635 361.238 226.326 364.769C233.298 367.529 238.243 372.278 241.689 378.731C246.715 372.115 243.837 372.237 257.052 364.688ZM178.047 364.809C185.019 367.651 190.005 372.359 193.248 378.406C195.559 375.687 197.586 372.846 200.099 370.532C202.612 368.219 205.652 366.474 208.368 364.566C200.504 361.197 195.64 355.19 193.572 346.261C191.221 355.068 186.479 361.278 178.047 364.809ZM160.455 364.769C152.347 360.954 147.159 355.271 145.375 346.22C142.903 355.028 138.119 361.278 129.809 364.809C136.822 367.569 141.686 372.44 145.375 379.015C148.415 371.993 153.847 367.935 160.455 364.769ZM386.848 346.789C385.105 355.393 379.673 360.954 371.85 364.85C378.416 367.976 383.808 372.075 386.848 379.016C390.496 372.4 395.441 367.61 402.292 364.81C394.063 361.197 389.321 355.069 386.848 346.789ZM32.888 364.85C39.9007 367.61 44.7245 372.48 48.4538 378.893C51.494 371.953 57.0069 367.975 63.5737 364.728C59.3986 363.064 56.3178 360.548 53.6425 357.503C50.886 354.419 49.2645 350.806 48.4943 346.261C45.9811 355.028 41.1979 361.156 32.888 364.85ZM468.771 364.81C475.216 367.976 480.689 371.994 483.81 378.975C487.458 372.319 492.484 367.692 499.213 364.81C490.944 361.198 486.201 355.028 483.769 346.545C481.824 356.814 474.203 362.334 468.771 364.81ZM677.572 378.975C680.571 371.954 686.206 368.017 692.61 364.729C688.476 363.024 685.436 360.548 682.76 357.545C680.004 354.46 678.301 350.888 677.572 346.221C675.099 355.069 670.275 361.198 662.046 364.81C668.978 367.651 673.923 372.441 677.572 378.975ZM547.289 364.729C543.398 362.943 539.912 360.792 537.56 357.382C535.331 354.135 533.547 350.564 531.845 347.56C530.183 355.475 524.792 360.995 517.049 364.81C523.494 367.935 528.926 372.035 531.967 378.65C536.75 372.319 536.79 370.411 547.289 364.729ZM565.206 364.81C571.854 367.692 576.88 372.238 580.488 378.65C584.015 372.075 589.163 367.732 595.648 364.851C587.825 361.116 582.758 355.434 580.529 347.114C578.096 355.15 573.273 361.198 565.206 364.81Z" fill="white"/>
<path opacity="0.8" d="M1.59437 293.415C1.75652 281.766 10.7555 271.092 23.9702 271.01C36.7795 270.929 46.3866 280.711 46.5487 293.253C46.7109 305.267 37.2255 315.698 24.2945 315.901C11.931 316.104 1.71598 305.632 1.59437 293.415Z" fill="white"/>
<path opacity="0.7" d="M24.0918 224.738C34.6311 224.089 44.4003 233.79 44.1165 245.195C43.8328 256.438 34.6716 265.002 23.7269 264.759C13.3497 264.515 4.22918 256.681 4.1481 244.464C4.06703 234.033 13.1065 224.17 24.0918 224.738Z" fill="white"/>
<path opacity="0.6" d="M23.9293 179.238C33.658 179.157 41.1571 186.747 41.2787 196.123C41.4004 205.093 34.266 213.373 24.0915 213.414C13.998 213.414 7.59336 205.175 6.90425 198.153C5.89085 187.194 14.8088 179.238 23.9293 179.238Z" fill="white"/>
<path opacity="0.5" d="M37.3061 148.229C37.752 156.347 30.1312 161.623 23.9292 161.42C16.5112 161.177 10.7551 155.413 10.9172 147.823C11.0794 139.949 17.2408 134.51 24.3751 134.55C30.7393 134.591 37.8736 140.071 37.3061 148.229Z" fill="white"/>
<path opacity="0.4" d="M32.28 99.3201C32.2394 103.744 28.4291 107.722 24.1323 107.681C19.349 107.6 15.9035 103.582 15.944 99.2389C15.9846 94.9365 19.268 91.0806 24.0107 90.8777C28.3075 90.7153 32.3205 94.9365 32.28 99.3201Z" fill="white"/>
<path opacity="0.3" d="M19.9975 50.7349C20.2001 48.9084 22.6323 46.879 24.4159 47.0819C26.4021 47.2849 28.4289 49.5984 28.1452 51.3438C27.8614 53.1702 25.5914 55.0779 23.8889 54.8344C21.7 54.5096 19.7948 52.5614 19.9975 50.7349Z" fill="white"/>
<path opacity="0.3" d="M22.0072 1.98734C22.1062 1.0952 23.2942 0.103932 24.1654 0.203059C25.1356 0.302187 26.1256 1.43223 25.987 2.28472C25.8484 3.17686 24.7396 4.10864 23.908 3.98969C22.8388 3.83109 21.9082 2.87947 22.0072 1.98734Z" fill="white"/>
</g>
<defs>
<clipPath id="clip0_4183_24082">
<rect width="48" height="400" fill="white"/>
</clipPath>
</defs>
</svg>
