<svg width="48" height="400" viewBox="0 0 48 400" fill="none" xmlns="http://www.w3.org/2000/svg">
<g clip-path="url(#clip0_4531_23927)">
<path d="M-580.888 62.7086C-585.185 76.5491 -594.184 84.0579 -608.574 82.4344C-619.519 81.2167 -626.369 74.0326 -629.531 63.3174C-631.071 70.0956 -634.72 75.2503 -640.557 78.9032C-646.435 82.5967 -652.758 83.7331 -659.447 82.1096C-668.283 79.9584 -677.445 69.4867 -678.053 61.8562C-679.188 47.6909 -670.716 38.5992 -662.446 35.3928C-664.149 34.3781 -665.689 33.3228 -667.311 32.4298C-671.77 30.0757 -674.566 26.1793 -677.201 22.1611C-677.607 21.5117 -677.972 20.6999 -677.972 19.9287C-678.012 13.5158 -678.012 7.06232 -677.972 0.649409C-677.972 0.446469 -677.89 0.284117 -677.809 4.76417e-07C-434.594 0.000335459 -191.378 0.000670441 51.9591 0.00100559C51.9591 8.88978 51.9591 17.7786 51.9591 27.0326C50.4593 25.0032 49.1622 23.2174 47.8245 21.3503C44.7438 27.9661 39.393 32.0655 32.8262 35.2314C36.7582 36.9767 39.9605 39.2902 42.5548 42.4155C45.1897 45.5814 47.338 48.9907 47.7029 53.1713C48.9595 50.4113 50.2161 47.6108 51.5132 44.8102C51.6754 44.8508 51.8376 44.932 51.9997 44.9725C51.9997 53.8207 51.9997 62.6689 51.9997 71.5171C51.8376 71.5577 51.6754 71.6389 51.5132 71.6795C50.2972 68.9601 49.0811 66.2001 47.7434 63.2371C46.9327 69.0006 43.8925 73.5059 39.7578 76.9153C35.6232 80.3247 30.7589 82.5976 25.1244 82.8005C21.1518 82.9223 17.3415 82.3135 13.8148 80.487C10.4909 78.7011 6.9237 77.1182 4.93744 73.587C3.07279 70.2588 1.16764 66.9306 -0.494332 63.9271C-3.85882 75.5352 -11.8849 82.7193 -24.5727 82.6381C-37.4226 82.5569 -45.165 74.967 -48.8132 62.6282C-52.0561 75.1293 -60.0011 82.354 -72.6889 82.5975C-85.5793 82.841 -93.4433 75.3728 -97.2536 62.9122C-100.74 75.5757 -108.806 82.5974 -121.373 82.638C-134.02 82.6786 -141.803 75.2915 -145.491 62.831C-149.018 75.5756 -157.125 82.7191 -169.813 82.6379C-182.339 82.5567 -190.121 75.2509 -193.729 62.7903C-197.215 75.332 -205.12 82.5567 -217.645 82.6379C-230.617 82.6784 -238.724 75.3726 -242.129 62.1003C-246.264 76.1437 -254.898 83.4496 -269.207 82.6378C-274.477 82.3537 -279.017 79.756 -283.07 76.3872C-287.124 72.9778 -289.029 68.3102 -290.651 62.8714C-294.461 75.5754 -302.487 82.4348 -315.459 82.8001C-321.215 82.9624 -326.201 80.5271 -330.538 77.1177C-334.916 73.6677 -337.632 68.9189 -338.848 63.2772C-342.618 75.2507 -350.36 82.6783 -362.967 82.6782C-375.898 82.6782 -384.045 75.4535 -387.329 62.2218C-391.666 76.5494 -400.746 84.2205 -415.299 82.4752C-426 81.1764 -433.053 74.2764 -435.81 63.1553C-440.35 76.8335 -449.47 84.1799 -463.78 82.4752C-473.224 81.3793 -481.534 74.4793 -484.088 63.0741C-487.898 75.1693 -495.641 82.5969 -508.288 82.678C-520.895 82.7592 -528.597 75.3316 -532.691 63.3581C-535.285 74.3575 -544.851 82.678 -556.364 82.7592C-567.835 82.8403 -577.686 75.2098 -580.888 62.7086ZM-257.938 35.1904C-249.263 38.8433 -244.44 45.2562 -242.21 53.9421C-240.183 45.1345 -235.238 38.9245 -226.685 35.231C-233.657 32.1869 -238.886 27.6816 -242.21 20.6193C-245.818 27.641 -250.804 32.3492 -257.938 35.1904ZM-403.057 35.1902C-394.463 38.8431 -389.68 45.2966 -387.288 53.9419C-385.707 44.8908 -380.195 39.1679 -372.614 35.4338C-375.371 33.445 -378.37 31.6185 -380.843 29.305C-383.356 26.9509 -385.424 24.0691 -387.734 21.3903C-391.139 27.4785 -395.963 32.4302 -403.057 35.1902ZM-64.0547 35.2313C-55.9881 39.1683 -50.5562 44.9724 -49.1375 53.4959C-47.2728 49.8836 -45.773 45.9059 -43.3003 42.6589C-40.8276 39.4119 -37.5037 36.6925 -32.8826 35.2313C-40.3006 32.4713 -45.0433 27.3166 -48.9348 20.6602C-51.975 28.0066 -57.6095 31.9436 -64.0547 35.2313ZM-565.484 35.19C-572.375 32.3488 -577.321 27.3971 -580.766 21.5118C-583.158 24.3529 -585.104 27.2753 -587.617 29.5888C-590.13 31.8617 -593.211 33.5258 -595.927 35.3523C-588.225 39.127 -582.915 45.0123 -581.05 54.1446C-578.74 45.1746 -573.794 38.9646 -565.484 35.19ZM-275.369 35.231C-282.057 32.1463 -287.408 27.8845 -290.651 20.944C-294.137 27.8033 -299.325 32.3086 -306.095 35.2309C-297.785 38.8027 -293.002 44.9315 -290.61 53.8203C-288.583 44.8097 -283.678 38.8839 -275.369 35.231ZM-209.052 35.3122C-200.782 38.681 -195.999 44.8504 -193.77 53.7392C-191.459 44.8504 -186.635 38.7622 -178.326 35.2311C-185.298 32.4711 -190.243 27.7223 -193.689 21.2688C-198.715 27.8846 -195.837 27.7629 -209.052 35.3122ZM-130.047 35.1906C-137.019 32.3494 -142.005 27.6412 -145.248 21.5936C-147.559 24.313 -149.586 27.1541 -152.099 29.4676C-154.612 31.7811 -157.652 33.5264 -160.368 35.4341C-152.504 38.8029 -147.64 44.8099 -145.572 53.7393C-143.221 44.9317 -138.479 38.7217 -130.047 35.1906ZM-112.455 35.2312C-104.347 39.0465 -99.1588 44.7288 -97.3752 53.7799C-94.9025 44.9723 -90.1193 38.7218 -81.8095 35.1906C-88.8222 32.4306 -93.6865 27.5601 -97.3752 20.9848C-100.415 28.0065 -105.847 32.0653 -112.455 35.2312ZM-338.848 53.2114C-337.105 44.6067 -331.673 39.0462 -323.85 35.1497C-330.416 32.0244 -335.808 27.925 -338.848 20.9845C-342.496 27.6003 -347.441 32.3897 -354.292 35.1903C-346.063 38.8026 -341.321 44.9314 -338.848 53.2114ZM15.112 35.1502C8.09929 32.3902 3.2755 27.5196 -0.453806 21.1067C-3.494 28.0473 -9.00691 32.0249 -15.5737 35.2719C-11.3985 36.936 -8.3178 39.4525 -5.64243 42.4966C-2.88598 45.5813 -1.26452 49.1936 -0.494332 53.7395C2.0189 44.9725 6.80214 38.8437 15.112 35.1502ZM-420.771 35.1902C-427.216 32.0243 -432.689 28.0061 -435.81 21.0249C-439.458 27.6814 -444.485 32.3084 -451.213 35.1901C-442.944 38.8025 -438.201 44.9719 -435.769 53.4548C-433.824 43.186 -426.203 37.666 -420.771 35.1902ZM-629.572 21.0247C-632.571 28.0464 -638.206 31.9834 -644.61 35.271C-640.476 36.9757 -637.436 39.4516 -634.76 42.4551C-632.004 45.5398 -630.301 49.1116 -629.572 53.7792C-627.099 44.931 -622.275 38.8022 -614.046 35.1899C-620.978 32.3487 -625.923 27.5593 -629.572 21.0247ZM-499.289 35.2712C-495.398 37.0571 -491.912 39.2083 -489.56 42.6177C-487.331 45.8647 -485.547 49.4365 -483.845 52.44C-482.183 44.5253 -476.792 39.0054 -469.049 35.1901C-475.494 32.0648 -480.926 27.9654 -483.967 21.3496C-488.75 27.6813 -488.79 29.5889 -499.289 35.2712ZM-517.206 35.19C-523.854 32.3083 -528.88 27.7624 -532.488 21.3495C-536.015 27.9248 -541.163 32.2677 -547.648 35.1494C-539.825 38.8835 -534.758 44.5659 -532.529 52.8864C-530.096 44.85 -525.273 38.8024 -517.206 35.19Z" fill="white"/>
<path opacity="0.8" d="M46.4056 106.585C46.2435 118.234 37.2445 128.908 24.0298 128.99C11.2205 129.071 1.61341 119.289 1.45127 106.747C1.28912 94.7328 10.7745 84.3016 23.7055 84.0986C36.069 83.8957 46.284 94.3676 46.4056 106.585Z" fill="white"/>
<path opacity="0.7" d="M23.9082 175.262C13.3689 175.911 3.59972 166.21 3.88347 154.805C4.16723 143.562 13.3284 134.998 24.2731 135.241C34.6503 135.485 43.7708 143.319 43.8519 155.536C43.933 165.967 34.8935 175.83 23.9082 175.262Z" fill="white"/>
<path opacity="0.6" d="M24.0707 220.762C14.342 220.843 6.84287 213.253 6.72126 203.877C6.59965 194.907 13.734 186.627 23.9085 186.586C34.002 186.586 40.4066 194.825 41.0958 201.847C42.1092 212.806 33.1912 220.762 24.0707 220.762Z" fill="white"/>
<path opacity="0.5" d="M10.6939 251.771C10.248 243.653 17.8688 238.377 24.0708 238.58C31.4888 238.823 37.2449 244.587 37.0828 252.177C36.9206 260.051 30.7592 265.49 23.6249 265.45C17.2607 265.409 10.1264 259.929 10.6939 251.771Z" fill="white"/>
<path opacity="0.4" d="M15.72 300.68C15.7606 296.256 19.5709 292.278 23.8677 292.319C28.651 292.4 32.0965 296.418 32.056 300.761C32.0154 305.064 28.732 308.919 23.9893 309.122C19.6925 309.285 15.6795 305.063 15.72 300.68Z" fill="white"/>
<path opacity="0.3" d="M28.0025 349.265C27.7999 351.092 25.3677 353.121 23.5841 352.918C21.5979 352.715 19.5711 350.402 19.8548 348.656C20.1386 346.83 22.4086 344.922 24.1111 345.166C26.3 345.49 28.2052 347.439 28.0025 349.265Z" fill="white"/>
<path opacity="0.3" d="M25.9928 398.013C25.8938 398.905 24.7058 399.896 23.8346 399.797C22.8644 399.698 21.8744 398.568 22.013 397.715C22.1516 396.823 23.2604 395.891 24.092 396.01C25.1612 396.169 26.0918 397.121 25.9928 398.013Z" fill="white"/>
</g>
<defs>
<clipPath id="clip0_4531_23927">
<rect width="48" height="400" fill="white" transform="matrix(-1 0 0 -1 48 400)"/>
</clipPath>
</defs>
</svg>
