<svg width="940" height="320" viewBox="0 0 940 320" fill="none" xmlns="http://www.w3.org/2000/svg">
<g filter="url(#filter0_d_4183_24191)">
<path d="M914.5 1.5L131 48.5L36.5 304.999L841.5 249.499L914.5 1.5Z" fill="white"/>
<path d="M914.5 1.5L131 48.5L36.5 304.999L841.5 249.499L914.5 1.5Z" stroke="#333333"/>
</g>
<path d="M341 265.5L303.5 182L24.5 201L77 284L341 265.5Z" fill="#66CCFF"/>
<path d="M310 243.5L260 135.5L814.5 103L902 188.5L310 243.5Z" fill="#333333"/>
<path d="M175.667 90.0397L178.318 86.9922L183.415 90.9123C183.058 91.367 182.453 91.6925 181.36 91.9037C182.089 110.903 181.631 117.567 179.202 120.312C177.766 121.987 175.684 122.547 173.193 122.7C173.108 121.31 172.897 120.217 172.278 119.534C171.56 118.808 170.378 118.351 168.678 118.071L168.637 117.4C170.128 117.405 172.391 117.459 173.349 117.4C174.116 117.353 174.535 117.135 174.991 116.723C176.568 114.991 176.848 106.991 176.242 90.0045L175.667 90.0397ZM164.935 90.6961L163.259 90.7987L163.813 90.4281C163.575 95.973 162.595 108.248 161.778 114.549L162.209 114.523L160.391 117.039L155.179 114.376C155.812 113.712 156.968 112.968 157.906 112.574L156.577 114.435C157.564 108.555 158.502 94.7925 158.57 88.0558L164.935 90.6961ZM166.193 104.18C176.928 105.928 173.267 113.702 169.25 110.918C168.873 108.681 167.221 106.041 165.731 104.497L166.193 104.18ZM166.171 93.6021C176.502 95.0381 173.348 102.444 169.396 99.945C168.836 97.8633 167.1 95.4208 165.71 93.9188L166.171 93.6021ZM183.377 108.371C183.377 108.371 186.018 110.662 187.507 112.206C187.395 112.742 186.931 113.011 186.308 113.049L159.861 114.667L159.779 113.325L181.483 111.998L183.377 108.371ZM166.983 80.1354C166.823 80.6742 166.455 80.9372 165.197 80.8217C163.001 86.5825 158.974 93.0805 153.69 97.1066L153.235 96.7497C156.232 92.2864 158.554 84.6424 159.332 78.4874L166.983 80.1354ZM183.554 97.1074C183.554 97.1074 186.299 99.5364 187.746 101.179C187.682 101.712 187.218 101.981 186.547 102.022L153.058 104.07L152.592 102.752L181.482 100.985L183.554 97.1074ZM180.221 79.5662C180.221 79.5662 183.64 82.002 185.718 83.7504C185.607 84.2862 185.094 84.558 184.424 84.599L160.66 86.0525L160.578 84.711L177.538 83.6736L180.221 79.5662ZM178.063 89.8932L178.148 91.2826L161.715 92.2877L161.63 90.8983L178.063 89.8932ZM145.142 109.892C145.813 109.851 146.005 109.839 146.47 108.801C147.269 106.925 147.269 106.925 154.099 86.5018L154.925 86.6436C153.57 92.7859 151.327 104.08 150.913 106.75C150.681 108.447 150.448 110.145 150.575 111.435C150.778 113.972 152.806 115.675 152.923 119.948C153.021 122.346 151.585 124.021 149.285 124.162C148.231 124.226 147.088 123.623 146.642 121.823C147.247 116.785 146.729 112.248 145.58 111.549C144.883 111.158 144.102 110.966 143.042 110.934L142.986 110.024C142.986 110.024 144.615 109.924 145.142 109.892ZM141.353 91.1767C153.623 91.2918 149.913 100.608 144.922 97.6428C144.35 95.3695 142.569 92.9778 140.987 91.4876L141.353 91.1767ZM144.024 79.8084C157.135 80.305 153.211 90.0667 147.97 86.9248C147.335 84.4149 145.348 81.7953 143.661 80.1672L144.024 79.8084ZM199.081 117.461C199.116 118.036 197.228 119.402 194.928 119.543L194.114 119.593L191.899 83.3724L197.357 85.3468L206.029 84.8164L206.111 86.1579L197.2 86.703L199.081 117.461ZM206.021 77.6035C205.828 78.3847 205.178 78.7611 204.124 78.8256C202.765 80.9766 200.509 84.1923 199.045 86.2054L197.56 86.2962C197.74 83.7365 198.042 79.2456 198.097 76.2126L206.021 77.6035ZM226.909 83.3951L229.734 80.0484L235.136 84.2384C234.782 84.741 234.177 85.0665 233.087 85.3256C233.932 104.654 233.798 113.463 231.336 116.451C229.77 118.374 227.709 119.269 224.547 119.463C224.433 117.594 224.063 116.27 223.25 115.55C222.331 114.693 220.416 114.041 218.09 113.75L218.097 113.076C220.36 113.13 223.681 113.168 224.879 113.094C225.741 113.042 226.208 112.821 226.661 112.36C228.331 110.575 228.246 100.529 227.484 83.3599L226.909 83.3951ZM203.969 84.9424L206.332 81.9125L211.756 85.6684C211.495 86.1172 210.8 86.5444 209.856 86.8426L211.6 115.349C211.575 115.736 209.106 117.041 207.238 117.155L206.423 117.205L204.448 84.9131L203.969 84.9424ZM214.571 93.96C228.714 97.1826 224.176 107.896 218.834 103.894C218.386 100.507 216.232 96.7438 214.158 94.2738L214.571 93.96ZM230.503 83.1753L230.585 84.5168L215.876 85.4164L216.369 84.0397L230.503 83.1753ZM223.478 76.8243C223.321 77.4109 222.722 77.8323 221.668 77.8968C219.284 85.3042 215.673 91.5362 211.128 95.8537L210.53 95.5056C212.863 90.4096 214.973 82.442 215.821 75.0805L223.478 76.8243ZM207.751 98.0319L207.833 99.3734L195.616 100.121L195.534 98.7792L207.751 98.0319ZM208.604 111.974L208.689 113.363L196.472 114.111L196.387 112.721L208.604 111.974ZM241.105 98.4926L277.326 96.2772L277.408 97.6187L241.619 99.8077L241.105 98.4926ZM274.451 96.4531L273.924 96.4853L276.677 93.5277L282.013 97.4332C281.707 97.9329 281.099 98.2105 280.102 98.4158C279.722 107.143 278.475 112.702 275.861 114.785C274.257 116.086 272.325 116.733 269.355 116.914C269.258 115.333 268.981 113.956 268.072 113.242C267.157 112.432 265.149 111.834 262.921 111.585L262.883 110.962C265.195 111.013 268.946 111.024 270.096 110.954C270.911 110.904 271.336 110.782 271.84 110.366C273.258 109.174 274.229 103.824 274.451 96.4531ZM257.755 90.0203L265.719 90.495C265.625 91.3183 265.077 91.7847 264.026 91.897C263.438 103.523 259.503 113.093 241.753 118.506L241.385 118C255.961 111.001 258.259 100.617 257.755 90.0203ZM245.809 76.3241L245.665 73.9765L252.037 75.9431L270.052 74.8413L272.589 71.5122L278.153 75.2114C277.844 75.6631 277.431 75.977 276.338 76.1881L277.193 90.178C277.208 90.4175 275.401 91.5379 272.335 91.7255L271.281 91.7899L270.325 76.1711L251.592 77.3169L252.521 92.5045C252.548 92.9357 250.878 93.9515 247.908 94.1332L246.902 94.1947L245.809 76.3241ZM249.077 88.868L274.469 87.3149L274.554 88.7043L249.162 90.2574L249.077 88.868ZM326.058 83.1978C326.058 83.1978 330.748 86.7581 333.536 89.0883C333.424 89.6241 332.861 89.8509 332.095 89.8978L289.119 92.5263L288.594 91.0195L322.419 88.9507L326.058 83.1978ZM347.196 99.3615C350.722 105.109 355.461 105.54 364.612 104.981C368.828 104.723 379.32 104.081 383.722 103.716L383.758 104.291C381.963 104.833 381.209 106.659 381.287 108.722C377.694 108.942 368.591 109.498 364.806 109.73C355.128 110.322 350.155 108.414 346.735 99.6783L347.196 99.3615ZM349.562 81.4236C348.322 83.9521 345.279 89.2357 343.61 91.8384L343.994 91.8149L342.414 93.4985L338.154 90.6814C338.747 90.1642 340.056 89.5551 341.006 89.3528L339.222 90.8564C341.031 88.197 344.054 82.578 345.234 79.8609L349.562 81.4236ZM344.899 79.8814L346.965 77.4948L351.667 81.2468C350.902 82.1111 348.369 82.3622 346.192 82.1587L345.522 79.8433L344.899 79.8814ZM346.271 90.5215L348.745 87.7253L353.486 91.3306C353.18 91.8302 352.754 91.9524 351.661 92.1635C350.094 99.569 346.248 107.45 338.732 112.719L338.266 112.171C343.301 106.429 346.052 97.9407 346.75 90.4922L346.271 90.5215ZM346.384 79.7906L346.466 81.1321L337.89 81.6566L337.377 80.3415L346.384 79.7906ZM348.619 90.3779L348.701 91.7194L341.993 92.1297L342.438 90.7559L348.619 90.3779ZM338.801 67.4625C351.644 69.0815 347.721 78.8432 342.71 75.543C342.253 72.7817 340.236 69.6831 338.388 67.7763L338.801 67.4625ZM363.666 88.7362C372.96 88.9372 368.511 95.6053 364.829 92.8008C364.792 91.4085 364.024 89.8685 363.253 89.05L363.666 88.7362ZM364.479 80.7998C373.438 81.0213 368.516 87.045 365.071 84.178C365.144 83.0193 364.631 81.7042 364.063 81.0657L364.479 80.7998ZM365.007 84.7108C364.195 89.5214 360.141 91.6448 354.49 92.808L354.254 92.1011C358.197 90.5134 359.843 88.3449 360.12 85.0097L365.007 84.7108ZM378.3 83.465L378.385 84.8544L355.053 86.2815L354.968 84.8921L378.3 83.465ZM368.688 66.2597C368.54 66.9901 367.941 67.4115 366.887 67.476C365.792 68.4566 363.952 69.8195 362.759 70.7581L361.514 70.8342C361.719 69.4752 362.046 66.9545 362.239 65.4038L368.688 66.2597ZM374.921 95.8384L375.003 97.1799L362.019 97.974L362.608 96.5915L374.921 95.8384ZM371.649 86.3725C371.725 87.6181 371.725 87.6181 372.54 87.5683L375.941 87.3603C376.181 87.3456 376.516 87.3251 376.756 87.3105C376.995 87.2958 377.331 87.2753 377.705 87.1081L378.136 87.0817L378.427 87.1121C379.648 87.4221 379.893 87.5033 379.926 88.0303C379.999 89.228 379.259 89.7061 375.713 89.923L372.024 90.1486C368.048 90.3918 367.791 90.119 367.574 86.5736L367.448 84.5135L371.52 84.2644L371.649 86.3725ZM365.966 93.3084C365.191 99.5112 361.031 103.036 354.189 105.185L353.911 104.577C358.649 101.835 360.36 98.364 360.504 93.6424L365.966 93.3084ZM372.813 95.9673L375.071 93.569L379.746 96.8898C379.431 97.2457 378.919 97.5174 378.018 97.7168C377.759 100.57 377.227 102.093 375.699 103.052C374.494 103.799 372.775 104.001 370.524 104.138C370.453 102.988 370.283 102.566 369.574 101.984C368.913 101.4 367.551 101.146 365.857 100.961L365.864 100.288C367.403 100.29 370.145 100.314 370.96 100.264C371.631 100.223 372.011 100.152 372.239 99.9458C372.793 99.5753 373.136 98.1116 373.292 95.938L372.813 95.9673ZM376.623 83.5676L378.695 81.2768L382.757 84.7794C382.394 85.1382 381.921 85.2633 380.965 85.3699C379.764 86.1647 377.522 87.2636 376.114 87.8306L375.471 87.5333C375.99 86.5878 376.831 84.6128 377.15 83.5353L376.623 83.5676ZM354.986 82.0537C356.844 85.691 356.391 88.5079 354.916 89.5599C353.901 90.2472 352.113 90.1161 351.549 88.756C351.036 87.4409 351.834 86.3341 352.996 85.6859C353.916 85.0045 354.637 83.4215 354.223 82.1484L354.986 82.0537ZM377.951 89.5457C377.951 89.5457 380.508 91.2648 382.078 92.5633C381.967 93.0991 381.55 93.3651 380.928 93.4031L353.571 95.0764L353.105 93.7583L375.959 92.3605L377.951 89.5457ZM360.615 82.0941C360.642 82.5253 358.598 83.7082 356.586 83.8313L355.915 83.8723L354.966 68.3494L360.122 70.1018L373.968 69.255L374.05 70.5964L359.965 71.458L360.615 82.0941ZM374.819 76.0798L374.901 77.4213L359.234 78.3795L359.152 77.038L374.819 76.0798ZM374.656 72.6273L374.741 74.0167L359.074 74.9749L358.989 73.5855L374.656 72.6273ZM374.497 79.4657L374.579 80.8072L359.104 81.7537L359.022 80.4122L374.497 79.4657ZM371.525 69.4044L373.72 66.7695L378.785 70.1626C378.518 70.5156 377.918 70.9369 377.02 71.1843L377.624 81.0538C377.599 81.44 375.313 82.5897 373.636 82.6923L372.822 82.7421L372.004 69.3751L371.525 69.4044ZM396.41 73.7012L419.359 72.2976L419.441 73.6391L396.492 75.0427L396.41 73.7012ZM396.808 80.2171L419.757 78.8134L419.839 80.1549L396.89 81.5586L396.808 80.2171ZM416.235 66.0446L415.756 66.0739L418.305 62.9365L424.22 66.8547C423.956 67.2556 423.311 67.7278 422.365 67.978L423.165 81.0576C423.137 81.3959 420.231 82.6316 418.315 82.7488L417.261 82.8133L416.235 66.0446ZM393.142 67.4571L392.99 64.9657L399.419 67.0732L418.775 65.8893L418.857 67.2308L399.165 68.4352L400.044 82.8083C400.077 83.3353 397.521 84.7901 395.077 84.9395L394.215 84.9923L393.142 67.4571ZM386.344 86.8202L422.612 84.602L425.378 80.297C425.378 80.297 429.001 82.9128 431.127 84.6582C431.016 85.194 430.551 85.4629 429.833 85.5068L386.809 88.1383L386.344 86.8202ZM406.131 85.61L412.072 85.2466L413.241 104.363L407.215 103.337L406.131 85.61ZM409.204 93.4049L418.355 92.8452L421.302 88.3369C421.302 88.3369 425.167 90.9859 427.493 92.8634C427.382 93.3992 426.87 93.671 426.151 93.7149L409.286 94.7464L409.204 93.4049ZM395.804 89.7521L403.705 90.7597C403.554 91.4422 403.101 91.9027 401.904 91.9759C400.569 98.4535 396.892 105.171 387.49 109.497L387.078 109.041C393.576 103.642 395.512 95.9736 395.804 89.7521ZM399.031 95.3256C402.462 101.896 407.072 102.576 416.032 102.028C419.673 101.805 428.488 101.266 432.315 100.936L432.35 101.511C430.553 102.006 429.853 103.924 429.934 106.035C426.964 106.217 419.394 106.68 416.232 106.873C406.65 107.459 401.766 105.449 398.569 95.6423L399.031 95.3256ZM441.423 69.7939L441.268 67.2547L447.699 69.4101L470.074 68.0416L470.156 69.3831L447.35 70.7779L449.355 103.549C449.399 104.267 447.136 105.8 444.597 105.956L443.638 106.014L441.423 69.7939ZM466.768 68.2438L466.241 68.276L468.919 64.8902L474.899 69.093C474.542 69.5476 473.897 70.0199 472.858 70.3239L474.807 102.184C474.737 102.621 472.041 104.133 469.885 104.265L468.974 104.32L466.768 68.2438ZM444.677 79.7419L470.357 78.1712L470.439 79.5127L444.759 81.0834L444.677 79.7419ZM445.315 90.1864L470.995 88.6157L471.077 89.9572L445.397 91.5279L445.315 90.1864ZM445.96 100.727L471.64 99.156L471.725 100.545L446.045 102.116L445.96 100.727ZM452.682 60.4492L461.298 61.3649C461.189 61.9486 460.739 62.457 459.64 62.5723C457.996 64.7888 455.441 67.8305 452.932 70.0518L451.878 70.1163C452.334 67.3473 452.615 63.2906 452.682 60.4492ZM502.011 57.913L509.529 58.1745C509.474 58.8511 509.12 59.3537 507.838 59.6244L510.133 97.1383L504.431 97.487L502.011 57.913ZM487.201 69.7352L487.049 67.2438L493.238 69.3659L520.978 67.6693L521.06 69.0108L492.888 70.7338L494.74 101.013C494.781 101.684 492.564 103.166 490.168 103.313L489.258 103.368L487.201 69.7352ZM518.486 67.8217L517.912 67.8568L520.539 64.426L526.713 68.665C526.362 69.2155 525.577 69.7444 524.394 70.0572L526.17 99.0909C526.1 99.528 523.443 100.893 521.382 101.019L520.52 101.072L518.486 67.8217ZM491.874 97.3895L522.872 95.4935L522.957 96.883L491.959 98.7789L491.874 97.3895ZM490.902 83.0701L521.996 81.1683L522.078 82.5098L490.984 84.4116L490.902 83.0701ZM533.504 61.7575L533.372 59.6016L538.679 61.4411L544.38 61.0924L544.465 62.4818L538.572 62.8422L540.034 86.7495C540.063 87.2286 538.124 88.5495 535.921 88.6842L535.154 88.7311L533.504 61.7575ZM541.793 61.2506L541.314 61.2799L543.59 58.3996L549.008 62.0596C548.696 62.4634 548.051 62.9357 547.105 63.1859L548.388 84.1707C548.313 84.5119 545.886 85.7183 544.161 85.8238L543.299 85.8766L541.793 61.2506ZM537.799 80.875L545.992 80.3739L546.074 81.7154L537.881 82.2165L537.799 80.875ZM571.681 78.947L571.154 78.9792L573.634 76.2788L578.563 79.8245C578.254 80.2762 577.694 80.5509 576.697 80.7561C576.807 90.4155 576.07 94.8848 573.927 96.7952C572.602 97.9342 570.861 98.5696 568.559 98.6624C568.471 97.225 568.254 96.0361 567.587 95.3555C566.875 94.7258 565.546 94.23 563.894 93.9463L563.853 93.2756C565.347 93.3285 567.895 93.3169 568.805 93.2612C569.524 93.2173 569.901 93.098 570.267 92.7871C571.31 91.7615 571.799 87.1631 571.681 78.947ZM555.178 85.1019C563.41 90.7539 558.122 97.858 554.894 93.8236C555.442 91.0008 555.192 87.6979 554.564 85.2838L555.178 85.1019ZM560.17 84.1714C569.601 87.3937 565.195 94.7804 561.679 91.5331C561.912 89.0662 560.871 86.1964 559.61 84.4461L560.17 84.1714ZM564.984 82.6748C574.59 84.0589 571.487 91.5102 567.82 88.9453C567.592 86.7952 566.098 84.3859 564.573 83.0365L564.984 82.6748ZM550.59 85.5749L551.309 85.5309C553.724 91.2021 552.251 95.4279 550.186 97.045C548.714 98.1449 546.591 98.0343 545.776 96.4972C545.107 94.9992 545.941 93.6978 547.236 92.8492C548.944 91.6868 550.781 88.6891 550.59 85.5749ZM554.002 80.0283L572.879 78.8737L572.961 80.2152L554.084 81.3698L554.002 80.0283ZM552.692 58.6123L567.544 57.7039L570.148 53.8898C570.148 53.8898 573.511 56.1848 575.536 57.8403C575.424 58.3761 574.912 58.6479 574.241 58.6889L552.777 60.0017L552.692 58.6123ZM553.123 65.6551L567.304 64.7877L569.686 61.2758C569.686 61.2758 572.848 63.4388 574.673 64.9622C574.609 65.4951 574.145 65.764 573.474 65.805L553.208 67.0445L553.123 65.6551ZM553.559 72.7938L567.98 71.9118L570.36 68.3519C570.36 68.3519 573.474 70.5178 575.346 72.0383C575.234 72.5741 574.77 72.843 574.147 72.8811L553.641 74.1353L553.559 72.7938ZM559.831 58.1757L564.957 57.8621L566.302 79.853L561.176 80.1666L559.831 58.1757ZM549.865 58.7852L549.728 56.5334L555.806 58.4218L555.135 58.4628L556.606 82.5139C556.636 82.993 555.092 84.482 552.409 84.6461L551.451 84.7047L549.865 58.7852ZM603.541 92.7236C601.577 92.8438 599.95 91.4044 599.833 89.488C599.716 87.5716 601.152 85.8968 603.116 85.7766C605.129 85.6535 606.759 87.1408 606.876 89.0572C606.993 90.9737 605.554 92.6006 603.541 92.7236ZM602.041 81.5624C601.702 79.9481 601.348 78.0942 601.266 76.7527C601.128 74.501 602.286 72.9875 605.18 69.9732C607.896 67.2102 608.634 65.9147 608.444 62.8005C608.198 58.7761 605.616 56.6737 601.161 56.9462C599.628 57.04 598.4 57.4037 596.82 58.3178L598.778 56.5149C597.836 64.6997 596.535 65.4525 594.427 65.5814C593.277 65.6517 592.239 65.1863 591.611 64.359C591.514 58.8347 596.028 55.5771 602.687 55.1697C610.449 54.695 614.624 57.7097 614.929 62.6924C615.161 66.4773 613.633 69.0233 609.024 72.2868C605.203 75.0693 603.764 75.9267 603.782 78.5706L603.718 81.4598L602.041 81.5624Z" fill="#333333"/>
<path d="M643.072 64.4336L679.532 62.2036L682.372 58.327C682.372 58.327 685.974 60.6073 688.239 62.2481C688.127 62.7839 687.663 63.0528 686.992 63.0938L643.585 65.7487L643.072 64.4336ZM666.553 48.1377L673.927 48.408C673.917 49.0338 673.521 49.6351 672.332 49.8521C673.005 63.9974 675.021 77.2912 684.025 82.9921C684.833 83.6159 685.165 83.5475 685.547 82.7066C686.237 81.4141 687.375 78.7957 688.109 76.6349L688.597 76.7493L688.074 84.7161C689.96 87.2457 690.237 88.6234 689.568 89.4818C687.687 91.7608 683.698 90.2255 681.332 88.4947C670.127 80.6201 667.676 65.7179 666.553 48.1377ZM675.105 49.5863C688.08 51.0048 684.01 60.7275 679.041 57.3285C678.638 54.6601 676.627 51.6573 674.692 49.9001L675.105 49.5863ZM679.603 64.9404L686.642 67.5876C686.387 68.1322 685.925 68.449 684.718 68.3785C681.006 76.877 673.826 86.0684 661.681 91.1393L661.263 90.5879C671.065 84.1695 677.217 73.8867 679.603 64.9404ZM643.776 75.1626C647.867 74.4315 658.065 72.1246 668.348 69.6202L668.479 70.1893C664.062 72.6715 657.53 75.9564 647.934 80.2462C647.682 80.8387 647.181 81.3022 646.663 81.4781L643.776 75.1626ZM660.645 48.2586L666.998 53.0637C666.453 53.578 665.402 53.6903 663.887 53.3021C658.762 55.2025 650.423 57.2514 643.032 58.2805L642.853 57.7144C649.198 55.3066 656.878 51.1339 660.645 48.2586ZM653.332 53.7072L658.89 53.3673L660.874 85.8027C661.105 89.5876 660.314 92.3771 653.971 93.2459C653.767 91.4791 653.344 90.0623 652.527 89.2947C651.708 88.4792 650.568 87.9238 647.907 87.6537L647.868 87.0309C647.868 87.0309 653.162 87.0919 654.312 87.0215C655.126 86.9717 655.342 86.5738 655.304 85.9509L653.332 53.7072ZM718.865 60.5673C740.151 62.6317 738.907 75.3073 732.317 72.9212C729.46 68.6716 723.295 63.8069 718.506 60.974L718.865 60.5673ZM691.679 50.8809L726.223 48.7681L729.451 44.1465C729.451 44.1465 733.513 46.8795 736.032 48.7453C735.92 49.2811 735.408 49.5529 734.689 49.5968L692.145 52.1989L691.679 50.8809ZM711.355 58.8626L712.768 56.8045L718.599 58.5638C718.481 59.0038 718.071 59.3656 717.169 59.565L718.907 87.9759C718.876 88.2663 716.399 89.4277 714.338 89.5537L713.237 89.6211L711.355 58.8626ZM713.496 49.8351L721.545 49.3428C716.686 60.3159 705.824 70.6462 693.07 76.7643L692.753 76.3027C702.332 69.3691 710.819 58.7511 713.496 49.8351ZM746.148 51.3966L755.587 50.8193L758.287 46.9994C758.287 46.9994 761.691 49.1956 763.862 50.8902C763.799 51.4231 763.334 51.692 762.616 51.7359L745.128 52.8055L746.148 51.3966ZM741.323 63.7141L757.661 62.7149L760.253 58.7092C760.253 58.7092 763.624 61.1479 765.652 62.8513C765.541 63.3871 765.028 63.6589 764.357 63.6999L741.792 65.0801L741.323 63.7141ZM749.598 51.1856L755.06 50.8516L755.599 59.6671C756.07 68.1502 755.599 80.1052 742.947 87.9001L742.438 87.4503C750.181 78.8015 750.665 68.625 750.14 60.0491L749.598 51.1856ZM745.133 42.6583L752.826 44.2075C752.672 44.8421 752.076 45.3114 751.022 45.3758C748.986 52.1849 745.754 57.5281 741.458 61.2052L740.86 60.8571C742.983 56.2549 744.678 49.3706 745.133 42.6583ZM754.245 68.9831C769.21 73.0691 765.343 83.7411 759.922 80.0331C758.975 76.3401 756.124 72.1864 753.784 69.2999L754.245 68.9831ZM769.761 78.133L782.074 77.3799L782.156 78.7214L769.843 79.4745L769.761 78.133ZM777.575 47.07L777.096 47.0993L779.597 43.9647L785.224 47.9006C784.912 48.3044 784.312 48.7258 783.369 49.0239L785.332 81.1239C785.263 81.561 782.704 82.9678 780.692 83.0909L779.781 83.1466L777.575 47.07ZM764.735 47.8553L764.585 45.4119L770.484 47.5037L779.827 46.9323L779.912 48.3217L770.377 48.9048L772.423 82.3463C772.464 83.0171 770.393 84.5383 767.901 84.6907L766.991 84.7464L764.735 47.8553ZM799.091 71.7705C802.931 77.1621 808.389 77.5497 818.786 76.9138C822.618 76.6794 831.961 76.108 836.028 75.7631L836.063 76.338C834.176 76.9343 833.377 78.8106 833.458 80.9216C830.296 81.115 822.295 81.6043 818.941 81.8095C808.065 82.4746 802.573 80.7427 798.629 72.0873L799.091 71.7705ZM802.772 52.5499C801.628 55.0725 798.797 60.6798 797.234 63.4203L797.617 63.3969L796.04 65.1284L791.591 62.3709C792.23 61.8028 793.491 61.1967 794.392 60.9973L792.657 62.498C794.364 59.7487 797.223 53.8031 798.253 50.9989L802.772 52.5499ZM797.678 51.0341L799.879 48.495L804.785 52.4269C804.029 53.4349 801.298 53.6019 798.978 53.4072L798.253 50.9989L797.678 51.0341ZM800.026 61.903L802.677 58.8555L807.87 62.7698C807.561 63.2215 807.141 63.4395 806.093 63.5998C804.095 71.0317 799.573 78.8584 791.811 84.0459L791.347 83.5452C796.385 77.8511 799.609 69.2382 800.553 61.8708L800.026 61.903ZM800.266 50.8759L800.348 52.2174L790.286 52.8327L789.773 51.5176L800.266 50.8759ZM802.038 61.78L802.123 63.1694L795.416 63.5796L795.906 62.155L802.038 61.78ZM791.216 40.513C804.555 40.8032 800.903 51.0773 795.521 47.9921C794.832 45.3893 792.734 42.5361 790.802 40.8268L791.216 40.513ZM821.263 46.6581C820.084 48.6057 818.107 51.6601 816.482 53.3946L814.565 53.5118C814.642 51.6316 814.557 48.6553 814.412 47.0771L821.263 46.6581ZM814.11 73.593C814.142 74.12 812.012 75.4526 809.76 75.5903L808.993 75.6372L807.476 50.8196L813.075 52.7373L826.825 51.8963L826.91 53.2857L812.92 54.1414L814.11 73.593ZM828.385 38.8648C828.273 39.4006 827.725 39.867 826.671 39.9315C825.021 42.0521 822.178 45.1114 819.717 47.3297L819.047 47.3708C819.79 44.5842 820.544 40.4024 820.898 37.5434L828.385 38.8648ZM827.747 70.114L827.832 71.5034L811.255 72.5173L811.17 71.1279L827.747 70.114ZM827.372 63.9815L827.454 65.323L810.877 66.3369L810.795 64.9954L827.372 63.9815ZM827 57.8969L827.085 59.2863L810.508 60.3001L810.423 58.9107L827 57.8969ZM824.142 52.0604L826.47 49.2251L831.788 52.8431C831.521 53.1961 830.97 53.6145 830.071 53.8618L831.211 72.499C831.139 72.8881 828.613 74.0525 826.841 74.1609L825.978 74.2137L824.621 52.0311L824.142 52.0604ZM807.992 38.8137C820.191 40.1354 815.897 49.3427 811.078 46.0307C810.686 43.554 809.076 40.8152 807.578 39.1275L807.992 38.8137ZM828.234 41.9037C828.234 41.9037 831.701 44.3366 833.777 46.037C833.713 46.5699 833.201 46.8417 832.53 46.8827L804.454 48.5999L803.989 47.2818L825.501 45.9661L828.234 41.9037Z" fill="#9F9F9F"/>
<path d="M132.276 170.681L132.133 168.333L138.074 170.326L152.255 169.459L152.34 170.848L137.871 171.733L139.606 200.096C139.647 200.767 137.522 202.195 135.127 202.342L134.216 202.397L132.276 170.681ZM130.605 207.042L153.65 205.633L156.683 200.975C156.683 200.975 160.605 203.765 162.839 205.696C162.775 206.229 162.263 206.501 161.544 206.545L131.073 208.408L130.605 207.042ZM149.62 169.62L149.141 169.649L151.597 166.565L157.269 170.45C157.005 170.851 156.361 171.324 155.414 171.574L157.046 198.26C156.974 198.649 154.364 200.011 152.4 200.131L151.49 200.187L149.62 169.62ZM136.478 196.921L153.438 195.884L153.521 197.225L136.56 198.263L136.478 196.921ZM135.723 183.791L152.636 182.756L152.718 184.098L135.805 185.132L135.723 183.791ZM121.063 182.331L123.094 179.369L128.137 180.84C128.02 181.28 127.561 181.645 126.71 181.889L128.407 209.629C128.337 210.067 126.111 211.405 123.907 211.54L122.853 211.604L121.063 182.331ZM123.222 166.522L131.267 168.338C131.111 168.924 130.512 169.346 129.362 169.416C126.408 179.311 121.957 187.518 116.254 193.349L115.656 193.001C118.764 186.415 121.88 176.029 123.222 166.522ZM175.323 195.94C178.867 201.205 183.651 201.586 192.946 201.017C196.97 200.771 206.744 200.173 210.951 199.772L210.986 200.347C209.006 200.997 208.174 203.116 208.315 205.415C205.057 205.615 196.577 206.133 193.175 206.341C183.305 206.945 178.281 204.992 174.906 196.206L175.323 195.94ZM178.285 177.533C176.862 180.217 173.42 186.054 171.526 188.91L171.91 188.887L170.33 190.571L165.875 187.717C166.612 187.191 167.871 186.537 168.823 186.383L166.992 187.889C169.026 184.976 172.498 178.848 173.807 175.883L178.285 177.533ZM173.151 176.163L175.49 173.52L180.748 177.719C179.897 178.732 176.974 178.911 174.507 178.677L173.726 176.128L173.151 176.163ZM174.612 187.471L177.269 184.52L182.357 188.296C182.102 188.841 181.632 189.014 180.533 189.129C178.633 196.603 174.186 204.088 166.167 209.003L165.701 208.455C171.041 202.982 174.195 194.807 175.092 187.442L174.612 187.471ZM175.403 176.026L175.488 177.415L165.283 178.039L164.767 176.676L175.403 176.026ZM178.206 187.252L178.291 188.641L170.002 189.148L170.444 187.726L178.206 187.252ZM166.784 164.05C180.869 163.958 177.971 174.763 172.319 171.983C171.331 169.206 168.691 166.145 166.421 164.408L166.784 164.05ZM187.844 162.425C200.264 162.627 196.193 172.35 191.096 169.199C190.71 166.818 189.108 164.223 187.43 162.739L187.844 162.425ZM190.36 198.05C190.389 198.529 188.019 199.876 185.719 200.017L185 200.061L184.068 184.825L189.908 186.728L202.7 185.946L202.782 187.287L189.75 188.084L190.36 198.05ZM203.281 194.663L203.363 196.004L186.978 197.006L186.896 195.665L203.281 194.663ZM199.011 186.171L201.377 183.189L207.04 186.931C206.776 187.332 206.131 187.804 205.137 188.057L205.694 197.16C205.666 197.498 202.943 198.579 201.219 198.684L200.26 198.743L199.49 186.142L199.011 186.171ZM202.813 165.789C202.813 165.789 206.269 168.031 208.389 169.68C208.326 170.213 207.813 170.485 207.143 170.526L179.69 172.205L179.222 170.839L200.158 169.558L202.813 165.789ZM200.225 171.43C200.225 171.43 203.581 173.629 205.696 175.183C205.585 175.719 205.072 175.99 204.402 176.031L183.752 177.294L183.287 175.976L197.612 175.1L200.225 171.43ZM200.619 177.08C200.619 177.08 203.975 179.28 206.042 180.836C205.93 181.372 205.466 181.641 204.795 181.682L184.146 182.945L183.681 181.627L198.006 180.751L200.619 177.08ZM237.585 185.495C237.617 186.022 235.577 187.253 233.517 187.379L232.75 187.426L231.209 162.225L236.515 164.065L251.75 163.133L251.835 164.522L236.36 165.469L237.585 185.495ZM244.844 164.228L247.127 201.551L242.144 201.855L239.862 164.533L244.844 164.228ZM254.096 195.979C254.096 195.979 257.716 198.547 259.845 200.34C259.733 200.876 259.221 201.148 258.55 201.189L231.289 202.856L230.824 201.538L251.282 200.287L254.096 195.979ZM251.633 186.367C251.633 186.367 255.1 188.8 257.13 190.552C257.067 191.084 256.602 191.353 255.884 191.397L233.414 192.772L232.948 191.453L248.95 190.475L251.633 186.367ZM248.061 163.358L250.296 160.577L255.564 164.15C255.3 164.551 254.604 164.978 253.658 165.228L254.783 183.626C254.756 183.964 252.374 185.12 250.697 185.222L249.883 185.272L248.54 163.329L248.061 163.358ZM252.451 180.883L252.536 182.273L234.905 183.351L234.82 181.961L252.451 180.883ZM252.301 172.14L252.383 173.481L234.513 174.574L234.431 173.233L252.301 172.14ZM234.189 179.499C233.832 179.954 233.128 180.238 232.2 180.006C230.749 181.441 229.007 182.846 227 183.834L226.345 183.345C227.398 181.694 228.491 179.127 229.244 176.484L234.189 179.499ZM216.583 161.34C229.8 161.205 226.049 171.437 220.574 168.406C219.892 165.899 217.901 163.231 216.266 161.648L216.583 161.34ZM226.651 203.284C226.674 203.667 225.074 205.016 222.534 205.171L221.576 205.229L220.31 184.532L225.224 179.952L226.651 203.284ZM224.927 182.182C236.485 184.024 232.843 192.085 228.484 189.226C227.906 186.857 226.012 184.183 224.514 182.496L224.927 182.182ZM224.077 170.644L226.785 167.738L231.857 172.044C231.498 172.451 230.883 172.632 229.787 172.796C227.114 179.403 221.373 186.968 214.585 191.567L214.077 191.117C219.21 185.417 223.41 177.033 224.7 170.606L224.077 170.644ZM227.958 170.407L228.043 171.796L214.053 172.652L213.537 171.289L227.958 170.407Z" fill="#333333"/>
<path d="M578.443 147.407C588.68 156.094 583.902 166.036 579.528 161.479C579.757 156.976 578.755 151.595 577.67 147.622L578.443 147.407ZM600.291 148.707C600.157 149.276 599.521 149.876 598.284 149.84C596.827 152.622 593.715 157.693 590.794 161.294L590.221 161.105C591.289 156.551 592.371 149.472 592.725 146.084L600.291 148.707ZM591.427 155.14C592.081 167.668 590.254 180.908 578.667 188.686L578.081 188.273C584.817 179.165 585.375 167.18 584.664 155.554L583.426 135.32L592.253 135.621C592.189 136.411 591.776 136.997 590.336 137.31L591.427 155.14ZM591.012 152.024C592.226 163.619 595.504 173.181 602.086 178.052L602.127 178.723C598.663 179.889 596.721 182.981 596.449 187.71C592.846 181.086 591.128 164.921 590.236 152.183L591.012 152.024ZM576.542 186.964C576.569 187.412 574.478 188.998 571.236 189.196L570.063 189.268L567.194 142.372L573.701 140.515L576.542 186.964ZM582.005 142.364C581.313 142.967 579.971 143.049 578.198 142.484C574.214 143.401 567.988 144.343 562.566 144.675L562.358 144.014C566.66 141.9 571.937 138.267 574.539 135.863L582.005 142.364ZM574.633 159.422C586.335 164.541 581.943 173.449 577.512 169.793C577.139 166.45 575.436 162.458 573.979 159.742L574.633 159.422ZM574.381 154.388C573.097 163.667 569.38 171.693 563.381 178.175L562.673 177.602C565.748 171.018 567.109 162.07 567.619 153.903L574.327 153.493L574.381 154.388ZM576.526 149.095C576.526 149.095 579.558 151.883 581.131 153.75C581.001 154.375 580.515 154.686 579.788 154.73L562.684 155.776L562.141 154.238L574.271 153.497L576.526 149.095ZM546.8 163.929C549.837 163.126 557.924 160.5 565.553 157.733L565.699 158.285C562.838 161.041 558.057 165.429 551.305 170.611C551.129 171.407 550.555 172.115 549.842 172.383L546.8 163.929ZM560.997 137.365C560.937 138.21 560.408 138.747 559.081 139.053L561.624 180.639C561.942 185.838 561.114 188.806 553.721 189.931C553.455 187.423 553.115 185.536 552.425 184.344C551.735 183.152 550.737 182.427 548.582 182.054L548.538 181.327C548.538 181.327 552.408 181.315 553.414 181.254C554.141 181.209 554.347 180.916 554.313 180.357L551.664 137.038L560.997 137.365ZM561.084 145.214C561.084 145.214 564.416 148.321 566.108 150.293C566.034 150.915 565.492 151.228 564.709 151.276L546.823 152.37L546.28 150.832L558.689 150.073L561.084 145.214ZM613.91 143.891L637.051 142.475L639.683 138.724C639.683 138.724 643.019 140.988 645.141 142.654C645.011 143.279 644.469 143.593 643.686 143.64L614.453 145.428L613.91 143.891ZM614.671 168.25L639.656 166.722L642.176 162.977C642.176 162.977 645.513 165.241 647.522 166.914C647.392 167.539 646.85 167.852 646.124 167.897L615.214 169.787L614.671 168.25ZM636.262 147.012L635.815 147.039L638.331 144.136L644.114 147.878C643.907 148.171 643.372 148.597 642.597 148.757L643.065 156.414C643.037 156.865 640.027 158.115 638.071 158.235L636.953 158.303L636.262 147.012ZM617.09 148.185L616.936 145.669L623.518 147.791L639.057 146.841L639.153 148.406L623.334 149.374L623.878 158.261C623.909 158.764 621.193 160.221 618.677 160.374L617.839 160.426L617.09 148.185ZM632.374 163.24L640.687 163.404C640.627 164.25 640.092 164.675 638.928 164.915L639.352 171.846C639.605 175.982 638.831 177.993 632.325 178.952C632.166 177.279 631.924 176.059 631.313 175.255C630.713 174.618 629.946 173.992 627.913 173.78L627.869 173.053C627.869 173.053 631.404 173.061 632.186 173.013C632.801 172.976 632.958 172.798 632.924 172.239L632.374 163.24ZM619.483 168.965C632.15 168.752 626.921 178.665 621.648 175.004C621.518 172.88 620.313 170.598 619.053 169.272L619.483 168.965ZM620.323 152.419L639.942 151.219L640.038 152.784L620.418 153.984L620.323 152.419ZM620.6 156.947L640.219 155.747L640.315 157.312L620.695 158.512L620.6 156.947ZM625.954 139.002L633.992 139.24C633.918 139.862 633.609 140.33 632.505 140.621L633.825 162.197L627.397 162.59L625.954 139.002ZM614.984 161.442C619.965 161.249 630.585 160.6 641.814 159.801L641.872 160.751C637.231 161.933 630.253 163.425 619.83 165.466C619.539 166.213 619.001 166.582 618.449 166.728L614.984 161.442ZM635.249 157.958C652.803 156.941 644.141 166.672 640.081 162.656C639.321 161.244 637.709 159.659 635.017 158.758L635.249 157.958ZM612.711 181.161L651.838 178.768L651.934 180.333L612.807 182.727L612.711 181.161ZM645.591 135.333L645.032 135.367L648.366 131.18L655.58 136.293C655.22 136.82 654.52 137.311 653.419 137.659L656.066 180.922C655.988 181.488 652.576 183.492 649.781 183.663L648.551 183.738L645.591 135.333ZM605.29 137.798L605.092 134.556L613.451 137.299L648.497 135.155L648.593 136.72L612.932 138.901L615.667 183.618C615.728 184.624 612.823 186.653 609.581 186.851L608.295 186.93L605.29 137.798ZM668.283 140.341L668.067 136.819L677.282 139.79L702.267 138.262L702.363 139.827L676.819 141.39L679.14 179.343C679.202 180.349 675.859 182.573 672.226 182.795L670.884 182.877L668.283 140.341ZM697.46 138.556L696.845 138.594L700.544 133.935L708.634 139.612C708.217 140.142 707.525 140.746 706.256 141.104L708.509 177.939C708.432 178.505 704.52 180.596 701.39 180.787L700.048 180.869L697.46 138.556ZM672.693 151.909L702.486 150.087L702.581 151.652L672.789 153.474L672.693 151.909ZM673.439 164.094L703.231 162.272L703.327 163.837L673.534 165.659L673.439 164.094ZM674.194 176.447L703.986 174.625L704.082 176.19L674.29 178.012L674.194 176.447ZM681.006 129.127L692.972 130.303C692.849 131.04 692.321 131.577 690.983 131.715C688.733 134.377 685.256 138.068 681.878 140.631L680.648 140.707C681.005 137.375 681.096 132.432 681.006 129.127ZM738.724 126.158L749.123 126.476C749.063 127.321 748.706 127.904 747.154 128.223L749.838 172.101L741.565 172.607L738.724 126.158ZM721.572 140.167L721.363 136.758L730.235 139.637L761.313 137.737L761.409 139.302L729.772 141.237L731.926 176.451C731.984 177.401 728.691 179.51 725.281 179.719L723.996 179.797L721.572 140.167ZM757.848 137.948L757.177 137.99L760.764 133.338L768.965 139.008C768.556 139.65 767.699 140.32 766.319 140.684L768.384 174.445C768.306 175.011 764.496 176.927 761.533 177.109L760.248 177.187L757.848 137.948ZM727.593 172.564L763.757 170.352L763.853 171.917L727.688 174.129L727.593 172.564ZM726.564 155.74L762.728 153.528L762.824 155.093L726.659 157.305L726.564 155.74ZM803.034 170.418C800.24 170.589 797.93 168.599 797.766 165.916C797.602 163.233 799.645 160.864 802.44 160.693C805.234 160.522 807.551 162.624 807.715 165.307C807.879 167.99 805.829 170.248 803.034 170.418ZM801.317 156.105L799.531 148.92C796.813 139.324 795.997 135.166 795.83 132.427C795.601 128.682 797.668 126.705 800.407 126.537C803.09 126.373 805.382 128.084 805.611 131.829C805.779 134.568 805.536 138.847 803.947 148.65L803.05 155.999L801.317 156.105Z" fill="#FFDD33"/>
<path d="M337.621 153.563L341.173 211.636L328.895 212.387L326.056 165.968L325.716 165.989L312.926 175.139L312.26 164.251L326.08 154.269L337.621 153.563ZM379.42 210.578C374.542 210.857 370.272 209.914 366.61 207.747C362.967 205.579 360.062 202.294 357.896 197.891C355.748 193.487 354.489 188.109 354.119 181.756C353.732 175.423 354.338 169.969 355.936 165.393C357.554 160.816 360.04 157.258 363.395 154.719C366.768 152.16 370.884 150.732 375.742 150.435C380.6 150.138 384.85 151.054 388.49 153.184C392.15 155.313 395.061 158.551 397.225 162.896C399.387 167.223 400.652 172.554 401.02 178.888C401.41 185.258 400.798 190.761 399.184 195.394C397.589 200.027 395.115 203.641 391.764 206.237C388.412 208.833 384.298 210.28 379.42 210.578ZM378.798 200.398C382.125 200.195 384.679 198.359 386.459 194.892C388.239 191.424 388.915 186.345 388.487 179.654C388.218 175.25 387.54 171.61 386.453 168.735C385.385 165.86 383.984 163.735 382.249 162.361C380.533 160.986 378.569 160.366 376.358 160.501C373.049 160.703 370.504 162.519 368.721 165.949C366.939 169.379 366.24 174.393 366.624 180.991C366.897 185.453 367.569 189.15 368.641 192.082C369.729 194.995 371.142 197.147 372.878 198.54C374.613 199.914 376.586 200.533 378.798 200.398ZM435.993 207.118C431.114 207.397 426.844 206.454 423.183 204.287C419.54 202.119 416.635 198.833 414.468 194.431C412.32 190.027 411.061 184.649 410.692 178.296C410.305 171.963 410.91 166.509 412.509 161.933C414.126 157.356 416.613 153.798 419.968 151.259C423.34 148.7 427.456 147.272 432.314 146.975C437.173 146.677 441.422 147.594 445.063 149.724C448.722 151.853 451.634 155.091 453.797 159.436C455.959 163.763 457.224 169.094 457.593 175.428C457.982 181.798 457.37 187.3 455.756 191.934C454.161 196.567 451.688 200.181 448.336 202.777C444.985 205.372 440.87 206.82 435.993 207.118ZM435.37 196.938C438.697 196.735 441.251 194.899 443.031 191.432C444.812 187.964 445.488 182.885 445.059 176.194C444.79 171.79 444.112 168.15 443.025 165.275C441.958 162.399 440.556 160.275 438.822 158.901C437.106 157.526 435.142 156.906 432.93 157.041C429.622 157.243 427.076 159.059 425.294 162.489C423.511 165.919 422.812 170.933 423.197 177.531C423.47 181.993 424.142 185.69 425.213 188.622C426.302 191.535 427.714 193.687 429.45 195.08C431.185 196.454 433.158 197.073 435.37 196.938ZM500.839 190.941L500.651 187.879C500.509 185.554 500.87 183.388 501.734 181.38C502.615 179.353 503.966 177.696 505.784 176.408C507.621 175.1 509.91 174.362 512.651 174.195C515.43 174.025 517.8 174.468 519.762 175.524C521.743 176.58 523.276 178.061 524.36 179.968C525.462 181.855 526.085 183.971 526.228 186.315L526.416 189.377C526.558 191.702 526.198 193.878 525.335 195.904C524.471 197.911 523.12 199.559 521.283 200.848C519.446 202.156 517.157 202.894 514.416 203.061C511.637 203.231 509.266 202.779 507.303 201.703C505.341 200.647 503.809 199.175 502.707 197.288C501.603 195.382 500.981 193.267 500.839 190.941ZM508.903 187.374L509.09 190.437C509.172 191.779 509.571 193.026 510.287 194.177C511.021 195.328 512.249 195.851 513.969 195.745C515.689 195.64 516.825 194.982 517.377 193.772C517.948 192.561 518.192 191.265 518.107 189.885L517.92 186.823C517.836 185.443 517.455 184.176 516.777 183.022C516.099 181.868 514.872 181.345 513.095 181.454C511.393 181.558 510.248 182.226 509.659 183.457C509.071 184.689 508.818 185.994 508.903 187.374ZM469.004 159.531L468.816 156.468C468.673 154.124 469.043 151.948 469.925 149.94C470.807 147.912 472.157 146.255 473.976 144.967C475.814 143.678 478.084 142.951 480.787 142.786C483.585 142.615 485.965 143.057 487.927 144.114C489.889 145.17 491.422 146.651 492.525 148.557C493.627 150.444 494.25 152.56 494.394 154.904L494.581 157.967C494.724 160.311 494.354 162.487 493.472 164.495C492.608 166.503 491.257 168.151 489.419 169.439C487.599 170.708 485.31 171.427 482.55 171.596C479.79 171.765 477.419 171.321 475.438 170.266C473.475 169.191 471.943 167.719 470.842 165.851C469.759 163.963 469.146 161.856 469.004 159.531ZM477.125 155.96L477.312 159.023C477.396 160.403 477.796 161.659 478.51 162.792C479.244 163.923 480.442 164.438 482.106 164.337C483.845 164.23 484.99 163.572 485.543 162.362C486.114 161.15 486.357 159.855 486.272 158.475L486.085 155.412C486.001 154.032 485.62 152.765 484.942 151.611C484.264 150.457 483.027 149.935 481.231 150.045C479.549 150.148 478.423 150.824 477.855 152.073C477.286 153.322 477.043 154.618 477.125 155.96ZM475.445 203.424L511.819 142.909L519.248 142.454L482.875 202.97L475.445 203.424Z" fill="#FFDD33"/>
<defs>
<filter id="filter0_d_4183_24191" x="35.7637" y="0.958984" width="891.417" height="316.592" filterUnits="userSpaceOnUse" color-interpolation-filters="sRGB">
<feFlood flood-opacity="0" result="BackgroundImageFix"/>
<feColorMatrix in="SourceAlpha" type="matrix" values="0 0 0 0 0 0 0 0 0 0 0 0 0 0 0 0 0 0 127 0" result="hardAlpha"/>
<feOffset dx="12" dy="12"/>
<feComposite in2="hardAlpha" operator="out"/>
<feColorMatrix type="matrix" values="0 0 0 0 0.2 0 0 0 0 0.2 0 0 0 0 0.2 0 0 0 1 0"/>
<feBlend mode="normal" in2="BackgroundImageFix" result="effect1_dropShadow_4183_24191"/>
<feBlend mode="normal" in="SourceGraphic" in2="effect1_dropShadow_4183_24191" result="shape"/>
</filter>
</defs>
</svg>
