<svg width="1120" height="240" viewBox="0 0 1120 240" fill="none" xmlns="http://www.w3.org/2000/svg">
<g filter="url(#filter0_d_4183_23500)">
<rect width="1100" height="230" fill="white"/>
<rect x="2" y="2" width="1096" height="226" stroke="#180000" stroke-width="4"/>
<g filter="url(#filter1_d_4183_23500)">
<path d="M404.643 137.09L402.71 132.612C413.565 127.239 419.513 122.164 421.892 110.97L423.825 116.194C410.591 111.269 404.792 105.896 404.792 98.8807C404.792 91.7166 410.442 86.0449 418.026 86.0449C422.487 86.0449 425.609 87.0897 428.881 89.9255C430.665 94.2539 431.111 97.0897 431.111 101.567C431.111 119.926 421 132.314 404.643 137.09Z" fill="#1D1D1D"/>
<path d="M316.317 76.0448H314.83L322.711 66.9403L339.513 79.9254C338.473 81.1194 336.391 82.4627 333.268 83.0597V164.701C333.268 176.194 330.74 182.91 310.964 184.851C310.518 179.328 309.625 175.448 307.246 172.761C304.867 170.224 301.447 168.284 293.863 167.09V165C293.863 165 309.328 166.045 313.045 166.045C315.722 166.045 316.317 165 316.317 162.91V76.0448ZM256.243 76.0448V68.7314L273.343 76.0448H325.833V80.2239H272.302V178.731C272.302 180.821 266.057 184.552 258.92 184.552H256.243V76.0448ZM291.633 76.6418V56.0448H269.626L269.18 51.7164H289.7L294.161 45L305.759 53.209C304.272 55 301.001 56.194 296.243 56.7911V76.3433C297.283 93.209 307.246 114.403 320.926 125.448L320.629 126.791C315.871 128.731 312.005 134.701 310.369 140.075C303.826 133.209 296.837 119.179 294.607 104.104C290.741 120.075 280.332 133.209 269.18 140.821L267.693 139.478C280.035 123.657 286.577 99.3284 288.213 76.6418H291.633ZM204.05 65.8955V58.7313L221.002 65.8955H240.184V70.0746H220.407V155.896C220.407 157.985 213.864 161.866 206.578 161.866H204.05V65.8955ZM232.005 65.8955H230.518L238.548 57.0896L254.756 69.7761C253.715 70.9702 251.633 72.3134 248.659 72.9105V148.731C248.362 149.925 240.481 153.507 234.831 153.507H232.005V65.8955ZM212.972 133.955H239.292V138.284H212.972V133.955Z" fill="#1D1D1D"/>
<path d="M52.2305 69.9249H159.144L169.404 57.2383C169.404 57.2383 180.854 65.7458 187.991 71.7159C187.545 73.3577 185.909 74.104 183.679 74.104H53.42L52.2305 69.9249ZM110.371 45.4473L133.568 47.6861C133.122 49.7756 132.081 51.2682 128.066 51.8652V178.582C128.066 180.522 120.334 184.999 113.642 184.999H110.371V45.4473ZM128.066 110.671C139.367 134.999 164.348 152.761 189.924 159.776L189.627 161.417C183.084 163.059 177.731 168.582 175.649 176.94C150.965 164.701 135.055 143.358 126.282 111.567L128.066 110.671ZM81.9699 97.3876C117.509 105.895 102.193 130.671 89.2561 119.626C88.6613 112.164 84.4978 103.805 80.6316 98.1338L81.9699 97.3876ZM110.371 106.641L120.929 127.388C106.802 147.388 80.6316 166.94 51.0409 177.388L50 175.447C75.7246 161.417 99.6649 134.701 110.371 106.641ZM78.1038 79.0294L99.5162 85.298C98.9214 87.2383 96.9883 88.5816 93.8657 88.4323C85.836 109.477 73.6429 123.805 58.327 132.761L56.5427 131.417C66.5054 119.029 74.8324 100.074 78.1038 79.0294ZM152.452 97.3876C194.682 105.447 182.192 135.746 166.876 125.149C164.646 115.895 157.211 105.149 151.114 98.2831L152.452 97.3876ZM146.951 79.0294L169.107 84.104C168.512 86.0443 166.876 87.3876 163.456 87.5368C157.508 106.044 147.694 118.88 134.757 126.641L132.824 125.298C140.259 113.805 145.612 97.0891 146.951 79.0294Z" fill="#1D1D1D"/>
<path d="M1000.06 170.261C993.922 168.014 991.044 161.561 993.126 155.811C995.209 150.061 1001.59 146.836 1007.73 149.082C1013.87 151.329 1016.84 157.973 1014.76 163.723C1012.67 169.474 1006.2 172.507 1000.06 170.261ZM1010.55 135.184L1015.84 111.863C1020.08 87.0495 1022.83 75.9819 1025.47 68.6888C1028.31 60.8347 1034.2 58.5411 1039.92 60.6341C1045.64 62.727 1048.69 68.2876 1045.84 76.1418C1043.2 83.4349 1038.03 93.7749 1025.47 115.385L1014.74 136.715L1010.55 135.184Z" fill="#1D1D1D"/>
<path d="M884.182 58.7308H919.675L928.14 47.2383C928.14 47.2383 937.645 55.1487 943.436 60.5219C942.991 62.1637 941.506 62.9099 939.427 62.9099H885.37L884.182 58.7308ZM854.629 58.7308H875.568V62.9099H854.629V58.7308ZM847.649 58.7308V52.9099L861.757 58.7308H859.827V180.373C859.827 181.417 855.817 184.552 849.728 184.552H847.649V58.7308ZM869.034 58.7308H867.4L874.232 51.8651L887.152 64.2532C885.964 65.5965 884.033 65.895 880.766 66.0443C877.35 74.5517 871.262 90.3726 866.509 99.3278C876.162 109.925 880.469 122.014 880.469 133.656C880.469 147.985 876.905 154.253 865.024 154.552C865.024 151.417 864.579 147.089 863.688 145.596C862.797 144.253 861.312 143.358 859.233 142.91V140.82C860.718 140.82 863.242 140.82 864.282 140.82C865.47 140.82 866.212 140.671 866.806 140.074C868.143 138.88 868.886 136.044 868.886 130.97C868.886 120.223 867.549 109.626 862.797 99.7756C864.876 89.4771 867.846 69.1786 869.034 58.7308ZM889.528 129.328H906.903V133.507H889.528V129.328ZM919.378 58.7308H934.229V165.149C934.229 175.298 931.556 183.059 914.18 184.402C914.032 179.776 912.992 176.044 910.913 173.656C908.537 171.417 905.27 169.626 897.993 168.582V166.492C897.993 166.492 912.992 167.537 916.259 167.537C918.636 167.537 919.378 166.492 919.378 164.402V58.7308ZM901.557 82.9099H900.369L905.864 77.089L917.15 85.895C916.408 86.7905 914.774 87.686 912.695 88.1338V141.268C912.547 142.313 907.052 144.85 903.339 144.85H901.557V82.9099ZM883.439 82.9099V77.686L895.023 82.9099H906.458V87.089H894.577V144.552C894.577 145.596 889.825 148.283 885.073 148.283H883.439V82.9099ZM806.215 62.0144V55.895L820.621 62.0144H836.956V66.3428H819.878V157.537C819.878 159.029 814.68 162.462 808.591 162.462H806.215V62.0144ZM827.749 62.0144H826.412L833.095 54.9995L846.609 65.4472C845.867 66.492 844.085 67.5368 841.56 67.9845V150.074C841.412 151.119 834.877 154.253 830.125 154.253H827.749V62.0144ZM812.007 134.552H836.065V138.88H812.007V134.552Z" fill="#1D1D1D"/>
<path d="M713.546 45.2988L736.862 47.5376C736.417 49.6272 735.377 51.1197 731.367 51.7167V175.15H713.546V45.2988ZM664.836 134.254H753.792L764.039 121.269C764.039 121.269 775.771 129.926 782.751 136.194C782.454 137.836 780.672 138.582 778.593 138.582H666.172L664.836 134.254ZM653.549 173.508H762.702L773.395 159.776C773.395 159.776 785.573 169.03 792.849 175.448C792.404 176.941 790.919 177.687 788.543 177.687H654.737L653.549 173.508ZM682.805 87.0899C723.051 96.4929 709.24 125.597 694.537 114.254C693.201 105.299 686.964 94.8511 681.469 87.9854L682.805 87.0899ZM680.875 58.4332L703.745 64.7018C703.151 66.4929 701.369 67.9854 697.953 67.8361C688.894 95.2988 674.786 114.105 655.925 126.045L654.143 124.702C666.469 109.03 676.865 84.8511 680.875 58.4332ZM755.871 87.3884C801.76 96.4929 789.879 129.179 773.543 118.284C770.573 107.985 761.96 96.0451 754.683 88.4332L755.871 87.3884ZM749.931 58.2839L773.543 63.3585C773.098 65.2988 771.464 66.6421 768.049 66.7914C761.366 93.2093 749.782 111.567 733.001 123.209L731.219 122.015C741.02 106.045 748.297 83.06 749.931 58.2839Z" fill="#1D1D1D"/>
<path d="M612.71 104.254C659.044 131.418 644.936 168.433 627.858 153.06C626.076 137.388 617.908 119.03 610.928 105.149L612.71 104.254ZM564.593 102.761L586.721 109.478C586.127 111.418 584.196 112.612 580.929 112.612C572.464 132.761 560.584 148.881 546.773 159.478L544.842 158.134C553.01 144.701 560.732 123.507 564.593 102.761ZM570.088 45.4478L593.255 53.806C592.513 55.597 590.582 56.9403 587.167 56.6418C577.365 79.4776 563.702 97.3881 547.218 109.328L545.436 107.985C555.237 92.9104 565.039 69.0299 570.088 45.4478ZM566.673 74.5522H629.937V78.8806H566.673V74.5522ZM622.66 74.5522H620.878L630.085 65.2985L645.976 80.5224C644.788 81.8657 643.302 82.1642 640.035 82.3134C635.283 88.4328 626.818 96.9403 619.838 101.866L618.502 100.821C620.135 93.3582 622.066 81.5672 622.66 74.5522ZM522.714 93.209L529.546 84.2537L544.842 89.9254C544.396 91.2687 543.06 92.3134 540.238 92.7612V179.776C539.941 180.97 532.813 184.701 525.981 184.701H522.714V93.209ZM533.407 45L557.465 52.1642C556.723 54.1045 554.792 55.4478 551.525 55.2985C540.387 84.8507 524.496 107.836 504.893 123.209L503.111 122.015C515.289 103.358 527.467 73.806 533.407 45ZM587.909 80.3731L610.482 82.4627C610.185 84.7015 608.7 86.0448 605.285 86.4925V163.955C605.285 176.194 602.611 183.06 582.563 185C581.969 179.328 581.226 175 578.85 172.313C576.326 169.478 572.91 167.687 565.336 166.343V164.254C565.336 164.254 581.523 165.299 584.79 165.299C587.167 165.299 587.909 164.403 587.909 162.612V80.3731Z" fill="#1D1D1D"/>
</g>
</g>
<defs>
<filter id="filter0_d_4183_23500" x="0" y="0" width="1108" height="238" filterUnits="userSpaceOnUse" color-interpolation-filters="sRGB">
<feFlood flood-opacity="0" result="BackgroundImageFix"/>
<feColorMatrix in="SourceAlpha" type="matrix" values="0 0 0 0 0 0 0 0 0 0 0 0 0 0 0 0 0 0 127 0" result="hardAlpha"/>
<feOffset dx="8" dy="8"/>
<feComposite in2="hardAlpha" operator="out"/>
<feColorMatrix type="matrix" values="0 0 0 0 0 0 0 0 0 0 0 0 0 0 0 0 0 0 0.3 0"/>
<feBlend mode="normal" in2="BackgroundImageFix" result="effect1_dropShadow_4183_23500"/>
<feBlend mode="normal" in="SourceGraphic" in2="effect1_dropShadow_4183_23500" result="shape"/>
</filter>
<filter id="filter1_d_4183_23500" x="50" y="45" width="1008.67" height="148" filterUnits="userSpaceOnUse" color-interpolation-filters="sRGB">
<feFlood flood-opacity="0" result="BackgroundImageFix"/>
<feColorMatrix in="SourceAlpha" type="matrix" values="0 0 0 0 0 0 0 0 0 0 0 0 0 0 0 0 0 0 127 0" result="hardAlpha"/>
<feOffset dx="8" dy="8"/>
<feComposite in2="hardAlpha" operator="out"/>
<feColorMatrix type="matrix" values="0 0 0 0 0 0 0 0 0 0 0 0 0 0 0 0 0 0 0.3 0"/>
<feBlend mode="normal" in2="BackgroundImageFix" result="effect1_dropShadow_4183_23500"/>
<feBlend mode="normal" in="SourceGraphic" in2="effect1_dropShadow_4183_23500" result="shape"/>
</filter>
</defs>
</svg>
